# xmcd
#
# Track frame offsets:
#	150
#	15487
#	29061
#	42581
#	55889
#	68188
#	80936
#	92717
#	105682
#	118821
#	132891
#	142707
#	153991
#	167381
#	177820
#
# Disc length: 2555 seconds
#
# Revision: 1
# Processed by: cddbd v1.5.2PL0 Copyright (c) Steve Scherf et al.
# Submitted via: audiograbber 1.83.01
#
DISCID=c709f90f
DTITLE=Sam Cooke - SC8963
DYEAR=2000
DGENRE=Pop
TTITLE0=A Change Is Gonna Come
TTITLE1=Bring It On Home To Me
TTITLE2=Chain Gang
TTITLE3=Cupid
TTITLE4=Good Times
TTITLE5=Having A Party
TTITLE6=Another Saturday Night
TTITLE7=Every Body Loves To Cha Cha Cha
TTITLE8=Meet Me At Mary's Place
TTITLE9=Send Me Some Lovin'
TTITLE10=Only Sixteen
TTITLE11=Soothe Me
TTITLE12=You Send Me
TTITLE13=Wonderful World
TTITLE14=Twistin' The Night Away
EXTD=
EXTT0=
EXTT1=
EXTT2=
EXTT3=
EXTT4=
EXTT5=
EXTT6=
EXTT7=
EXTT8=
EXTT9=
EXTT10=
EXTT11=
EXTT12=
EXTT13=
EXTT14=
PLAYORDER=
